# xmcd
#
# Track frame offsets: 
#        150
#        3667
#        22235
#        40427
#        59685
#        80535
#        98685
#        118155
#        142097
#        161315
#        165345
#        179810
#
# Disc length: 2611 seconds
#
# Revision: 0
# Processed by: cddbd v1.5.2PL0 Copyright (c) Steve Scherf et al.
# Submitted via: ExactAudioCopy v0.95a5
#
DISCID=a70a310c
DTITLE=汪佩蓉 - 只要你快乐
DYEAR=2005
DGENRE=R&B
TTITLE0=Intro
TTITLE1=骗不了
TTITLE2=男人味 女人味
TTITLE3=你以为你是谁
TTITLE4=只要你快乐
TTITLE5=The One I Gave My Heart To
TTITLE6=很Man
TTITLE7=另外一个你
TTITLE8=比我对你更好的人
TTITLE9=Interlude
TTITLE10=哈理路亚
TTITLE11=只要你快乐（钢琴版）
EXTD=
EXTT0=
EXTT1=
EXTT2=
EXTT3=
EXTT4=
EXTT5=
EXTT6=
EXTT7=
EXTT8=
EXTT9=
EXTT10=
EXTT11=
PLAYORDER=
